# xmcd CD database file
#
# Track frame offsets:
#	150
#	29322
#	66972
#	106500
#	141450
#	175005
#
# Disc length: 2906 seconds
#
# Revision: 0
# Processed by: cddbd v1.5.2PL0 Copyright (c) Steve Scherf et al.
# Submitted via: CDex 1.70beta2
#
DISCID=4a0b5806
DTITLE=Matthias Schubert Quartet - Momentum
DYEAR=1999
DGENRE=Jazz
TTITLE0=Pentagon
TTITLE1=Upgrading
TTITLE2=Eine Zeit für den Frieden
TTITLE3=Momentum
TTITLE4=Praskins Talk
TTITLE5=Omsk i Tomski
EXTD=YEAR: 1999
EXTT0=
EXTT1=
EXTT2=
EXTT3=
EXTT4=
EXTT5=
PLAYORDER=
